<svg class="ldi-4rzxk7" width="200px"  height="200px"  xmlns="http://www.w3.org/2000/svg" xmlns:xlink="http://www.w3.org/1999/xlink" viewBox="0 0 100 100" preserveAspectRatio="xMidYMid" style="background: none;"><!--?xml version="1.0" encoding="utf-8"?--><!--Generator: Adobe Illustrator 21.0.0, SVG Export Plug-In . SVG Version: 6.00 Build 0)--><svg version="1.1" id="圖層_1" xmlns="http://www.w3.org/2000/svg" xmlns:xlink="http://www.w3.org/1999/xlink" x="0px" y="0px" viewBox="0 0 100 100" style="transform-origin: 50px 50px 0px;" xml:space="preserve"><g style="transform-origin: 50px 50px 0px; transform: scale(0.6);"><g style="transform-origin: 50px 50px 0px; animation-duration: 1.8s; animation-delay: -1.8s;" class="ld ld-slide-px-ltr"><style type="text/css" class="" style="transform-origin: 50px 50px 0px; animation-duration: 1s; animation-delay: -1s;">.st0{fill:#333333;} .st1{fill:#FFFFFF;stroke:#E15B64;stroke-width:9;stroke-miterlimit:10;} .st2{fill:#E0E0E0;} .st3{fill:#666666;} .st4{fill:#77A4BD;} .st5{fill:#FFFFFF;} .st6{fill:none;stroke:#E0E0E0;stroke-width:4.1492;stroke-linecap:round;stroke-linejoin:round;stroke-miterlimit:10;} .st7{fill:#E15B64;} .st8{fill:#FFFFFF;stroke:#E15B64;stroke-width:9.375;stroke-miterlimit:10;} .st9{fill:#FFFFFF;stroke:#333333;stroke-width:2.2676;stroke-miterlimit:10;} .st10{fill:#E0E0E0;stroke:#666666;stroke-width:4;stroke-miterlimit:10;} .st11{fill:#CCCCCC;} .st12{fill:none;stroke:#666666;stroke-width:3.8883;stroke-linecap:round;stroke-miterlimit:10;} .st13{fill:#E0E0E0;stroke:#E0E0E0;stroke-width:4.0031;stroke-linecap:round;stroke-miterlimit:10;} .st14{fill:none;stroke:#E0E0E0;stroke-width:4;stroke-linecap:round;stroke-miterlimit:10;} .st15{fill:#66503A;} .st16{fill:#849B87;} .st17{fill:none;stroke:#666666;stroke-width:2;stroke-linecap:round;stroke-miterlimit:10;} .st18{fill:#F47E60;} .st19{fill:#ABBD81;} .st20{fill:#F8B26A;} .st21{fill:none;stroke:#808080;stroke-width:2;stroke-linecap:round;stroke-miterlimit:10;} .st22{fill:#D50D01;} .st23{fill:#F5E6C8;} .st24{fill:#4D85AB;} .st25{fill:#F5E169;} .st26{fill:#FFFFFF;stroke:#000000;stroke-miterlimit:10;} .st27{fill:#E6E6E6;} .st28{stroke:#000000;stroke-miterlimit:10;} .st29{fill:#C33737;} .st30{fill:#FFFFFF;stroke:#E15B64;stroke-width:3;stroke-linecap:round;stroke-miterlimit:10;} .st31{fill:#808080;} .st32{fill:none;stroke:#E0E0E0;stroke-width:3;stroke-linecap:round;stroke-miterlimit:10;} .st33{fill:#666666;stroke:#FFFFFF;stroke-width:0.5834;stroke-linecap:round;stroke-miterlimit:10;} .st34{fill:none;stroke:#333333;stroke-width:4;stroke-linecap:round;stroke-miterlimit:10;} .st35{fill:#32517A;} .st36{fill:none;stroke:#E3CDB3;stroke-width:1.2;stroke-miterlimit:10;} .st37{fill:#E3CDB3;} .st38{fill:#849B87;stroke:#FFFFFF;stroke-width:1.5;stroke-miterlimit:10;} .st39{fill:none;stroke:#FFFFFF;stroke-width:4;stroke-miterlimit:10;} .st40{fill:#E15B64;stroke:#E0E0E0;stroke-width:3.3992;stroke-miterlimit:10;} .st41{fill:none;stroke:#E15B64;stroke-width:11.25;stroke-miterlimit:10;} .st42{fill:#FFFFFF;stroke:#E15B64;stroke-width:10;stroke-miterlimit:10;} .st43{fill:none;stroke:#E15B64;stroke-width:12;stroke-miterlimit:10;} .st44{fill:none;stroke:#333333;stroke-width:5;stroke-miterlimit:10;} .st45{fill:none;stroke:#333333;stroke-width:4.1855;stroke-miterlimit:10;} .st46{fill:#0071BC;stroke:#E15B64;stroke-width:9.375;stroke-miterlimit:10;} .st47{fill:#E15B64;stroke:#E15B64;stroke-width:9.375;stroke-miterlimit:10;} .st48{fill:none;stroke:#FFFFFF;stroke-width:10.6891;stroke-miterlimit:10;} .st49{fill:none;stroke:#E15B64;stroke-width:8;stroke-miterlimit:10;} .st50{fill:#FFFFFF;stroke:#333333;stroke-width:3.8549;stroke-miterlimit:10;} .st51{fill:none;stroke:#C33737;stroke-width:3.0839;stroke-linecap:round;stroke-linejoin:bevel;stroke-miterlimit:10;} .st52{fill:#A0C8D7;stroke:#77A4BD;stroke-width:2.5;stroke-miterlimit:10;} .st53{fill:#A0C8D7;} .st54{fill:none;stroke:#FFFFFF;stroke-width:3.6819;stroke-linecap:round;stroke-miterlimit:10;} .st55{opacity:0.5;fill:#666666;} .st56{fill:none;stroke:#333333;stroke-width:4.6651;stroke-miterlimit:10;} .st57{fill:#849B87;stroke:#FFFFFF;stroke-width:1.4326;stroke-miterlimit:10;} .st58{fill:none;stroke:#FFFFFF;stroke-width:2.5098;stroke-linecap:round;stroke-miterlimit:10;} .st59{fill:none;stroke:#FFFFFF;stroke-width:2.2296;stroke-linecap:round;stroke-miterlimit:10;} .st60{fill:none;stroke:#333333;stroke-width:1.7767;stroke-miterlimit:10;} .st61{fill:none;stroke:#FFFFFF;stroke-width:3.504;stroke-linecap:round;stroke-miterlimit:10;} .st62{fill:none;stroke:#FFFFFF;stroke-width:1.754;stroke-linecap:round;stroke-miterlimit:10;} .st63{fill:none;stroke:#333333;stroke-width:1.6297;stroke-miterlimit:10;} .st64{fill:none;stroke:#FFFFFF;stroke-width:1.6156;stroke-linecap:round;stroke-miterlimit:10;} .st65{fill:none;stroke:#333333;stroke-width:1.5011;stroke-miterlimit:10;} .st66{fill:#C2C2C2;} .st67{fill:none;stroke:#E0E0E0;stroke-width:4.0031;stroke-linecap:round;stroke-miterlimit:10;} .st68{fill:none;stroke:#666666;stroke-width:2.72;stroke-linecap:round;stroke-miterlimit:10;} .st69{fill:#F8B26A;stroke:#333333;stroke-width:3.0598;stroke-miterlimit:10;} .st70{fill:none;stroke:#FFFFFF;stroke-width:1.4118;stroke-linecap:round;stroke-miterlimit:10;} .st71{fill:none;stroke:#333333;stroke-width:4.3583;stroke-miterlimit:10;} .st72{fill:#77A4BD;stroke:#E0E0E0;stroke-width:3.2;stroke-miterlimit:10;} .st73{opacity:0.1;} .st74{fill:#E15B64;stroke:#E0E0E0;stroke-width:1.9832;stroke-miterlimit:10;} .st75{fill:none;stroke:#FFFFFF;stroke-width:2.3679;stroke-linecap:round;stroke-miterlimit:10;} .st76{fill:none;stroke:#A0C8D7;stroke-width:2.8855;stroke-linecap:round;stroke-miterlimit:10;} .st77{fill:none;stroke:#F8B26A;stroke-width:2.6943;stroke-linecap:round;stroke-miterlimit:10;} .st78{opacity:0.5;fill:#FFFFFF;} .st79{opacity:0.5;}</style><g class="" style="transform-origin: 50px 50px 0px; animation-duration: 1s; animation-delay: -0.967742s;"><path class="st3" d="M28.6,33.2h-7.4c-1.1,0-2.1-0.9-2.1-2.1v-1c0-1.1,0.9-2.1,2.1-2.1h7.4c1.1,0,2.1,0.9,2.1,2.1v1 C30.7,32.2,29.7,33.2,28.6,33.2z" fill="rgb(102, 102, 102)" style="fill: rgb(102, 102, 102);"></path></g><g class="" style="transform-origin: 50px 50px 0px; animation-duration: 1s; animation-delay: -0.935484s;"><path class="st3" d="M52,33.2h-7.4c-1.1,0-2.1-0.9-2.1-2.1v-1c0-1.1,0.9-2.1,2.1-2.1H52c1.1,0,2.1,0.9,2.1,2.1v1 C54.1,32.2,53.1,33.2,52,33.2z" fill="rgb(102, 102, 102)" style="fill: rgb(102, 102, 102);"></path></g><g class="" style="transform-origin: 50px 50px 0px; animation-duration: 1s; animation-delay: -0.903226s;"><path class="st2" d="M59,31.2H15.3c-4.1,0-7.3,3.3-7.3,7.3v8.4c0,4.1,3.3,7.3,7.3,7.3H59c4.1,0,7.3-3.3,7.3-7.3v-8.4 C66.4,34.5,63.1,31.2,59,31.2z" fill="rgb(224, 224, 224)" style="fill: rgb(224, 224, 224);"></path></g><g class="" style="transform-origin: 50px 50px 0px; animation-duration: 1s; animation-delay: -0.870968s;"><rect x="7.9" y="54.7" class="st20" width="59.7" height="7.1" fill="#009247" style="fill: rgb(0, 146, 71);"></rect></g><g class="" style="transform-origin: 50px 50px 0px; animation-duration: 1s; animation-delay: -0.83871s;"><path class="st7" d="M11.4,56.6H7.8c-0.2,0-0.3,0.1-0.3,0.3l0,3c0,0.2,0.2,0.4,0.4,0.4h3.7c0.9,0,1.6-0.7,1.6-1.6v-0.4 C13.1,57.4,12.4,56.6,11.4,56.6z" fill="rgb(225, 91, 100)" style="fill: rgb(225, 91, 100);"></path></g><g class="" style="transform-origin: 50px 50px 0px; animation-duration: 1s; animation-delay: -0.806452s;"><path class="st20" d="M89.2,65.9H69.5c-1.4,0-2.5-1.1-2.5-2.5l0.1-27.7c0-1.4,1.1-2.5,2.5-2.5h11.6c0.9,0,1.8,0.5,2.2,1.3l8,14.5 c0.2,0.4,0.3,0.8,0.3,1.2v13.2C91.8,64.7,90.6,65.9,89.2,65.9z" fill="#009247" style="fill: rgb(0, 146, 71);"></path></g><g class="" style="transform-origin: 50px 50px 0px; animation-duration: 1s; animation-delay: -0.774194s;"><path class="st3" d="M75.5,61.9h-66c0,0-0.3,0-0.3,0.4c0,2.2,1.2,3.6,2.9,3.6h63.3c0.9,0,1.6-0.9,1.6-2v0 C77,62.8,76.3,61.9,75.5,61.9z" fill="rgb(102, 102, 102)" style="fill: rgb(102, 102, 102);"></path></g><g style="transform-origin: 50px 50px 0px;"><g class="" style="transform-origin: 50px 50px 0px; animation-duration: 1s; animation-delay: -0.741935s;"><circle class="st5" cx="23.7" cy="64" r="6.6" fill="#ffffff" style="fill: rgb(255, 255, 255);"></circle></g><g class="" style="transform-origin: 50px 50px 0px; animation-duration: 1s; animation-delay: -0.709677s;"><path class="st0" d="M23.7,58.7c2.9,0,5.3,2.4,5.3,5.3c0,2.9-2.4,5.3-5.3,5.3c-2.9,0-5.3-2.4-5.3-5.3 C18.4,61.1,20.8,58.7,23.7,58.7 M23.7,56c-4.4,0-8,3.6-8,8c0,4.4,3.6,8,8,8c4.4,0,8-3.6,8-8C31.7,59.6,28.1,56,23.7,56L23.7,56z" fill="#333333" style="fill: rgb(51, 51, 51);"></path></g></g><g style="transform-origin: 50px 50px 0px;"><g class="" style="transform-origin: 50px 50px 0px; animation-duration: 1s; animation-delay: -0.677419s;"><circle class="st27" cx="23.7" cy="64" r="3.6" fill="#e6e6e6" style="fill: rgb(230, 230, 230);"></circle></g></g><g style="transform-origin: 50px 50px 0px;"><g class="" style="transform-origin: 50px 50px 0px; animation-duration: 1s; animation-delay: -0.645161s;"><circle class="st5" cx="74.9" cy="64" r="6.6" fill="#ffffff" style="fill: rgb(255, 255, 255);"></circle></g><g class="" style="transform-origin: 50px 50px 0px; animation-duration: 1s; animation-delay: -0.612903s;"><path class="st0" d="M74.9,58.7c2.9,0,5.3,2.4,5.3,5.3c0,2.9-2.4,5.3-5.3,5.3c-2.9,0-5.3-2.4-5.3-5.3C69.6,61.1,72,58.7,74.9,58.7 M74.9,56c-4.4,0-8,3.6-8,8c0,4.4,3.6,8,8,8c4.4,0,8-3.6,8-8C82.9,59.6,79.3,56,74.9,56L74.9,56z" fill="#333333" style="fill: rgb(51, 51, 51);"></path></g></g><g style="transform-origin: 50px 50px 0px;"><g class="" style="transform-origin: 50px 50px 0px; animation-duration: 1s; animation-delay: -0.580645s;"><circle class="st27" cx="74.9" cy="64" r="3.6" fill="#e6e6e6" style="fill: rgb(230, 230, 230);"></circle></g></g><g class="" style="transform-origin: 50px 50px 0px; animation-duration: 1s; animation-delay: -0.548387s;"><path class="st2" d="M87.5,57.5h4c0.6,0,1-0.5,1-1v-1.7c0-0.6-0.5-1-1-1h-3.9c-0.3,0-0.5,0.2-0.5,0.5v2.9 C87.1,57.3,87.3,57.5,87.5,57.5z" fill="rgb(224, 224, 224)" style="fill: rgb(224, 224, 224);"></path></g><g class="" style="transform-origin: 50px 50px 0px; animation-duration: 1s; animation-delay: -0.516129s;"><path class="st0" d="M82,36.4c-0.4-0.7-1-1.1-1.8-1.1H71c-1.1,0-2,0.9-2,2.1l-0.1,12.1h20.3c0-0.2-0.1-0.4-0.2-0.5L82,36.4z" fill="#333333" style="fill: rgb(51, 51, 51);"></path></g><g class="" style="transform-origin: 50px 50px 0px; animation-duration: 1s; animation-delay: -0.483871s;"><path class="st18" d="M73.9,53.3h-3.1c-0.5,0-0.8-0.4-0.8-0.8v0c0-0.5,0.4-0.8,0.8-0.8h3.1c0.5,0,0.8,0.4,0.8,0.8v0 C74.8,52.9,74.4,53.3,73.9,53.3z" fill="#f47e60" style="fill: rgb(244, 126, 96);"></path></g><g class="" style="transform-origin: 50px 50px 0px; animation-duration: 1s; animation-delay: -0.451613s;"><line class="st61" x1="19.4" y1="47.2" x2="54.4" y2="47.2" stroke="#ffffff" style="stroke: rgb(255, 255, 255);"></line></g><metadata xmlns:d="https://loading.io/stock/" class="" style="transform-origin: 50px 50px 0px; animation-duration: 1s; animation-delay: -0.419355s;">
<d:name class="" style="transform-origin: 50px 50px 0px; animation-duration: 1s; animation-delay: -0.387097s;">tanker</d:name>
<d:tags class="" style="transform-origin: 50px 50px 0px; animation-duration: 1s; animation-delay: -0.354839s;">water,gas,gasoline,diesel,truck,oil,tanker,transportation</d:tags>
<d:license class="" style="transform-origin: 50px 50px 0px; animation-duration: 1s; animation-delay: -0.322581s;">cc-by</d:license>
<d:slug class="" style="transform-origin: 50px 50px 0px; animation-duration: 1s; animation-delay: -0.290323s;">4rzxk7</d:slug>
</metadata></g></g><style type="text/css" class="" style="transform-origin: 50px 50px 0px; animation-duration: 1s; animation-delay: -0.258065s;">path,ellipse,circle,rect,polygon,polyline,line { stroke-width: 0; }@keyframes ld-slide-px-ltr {
  0%, 100% {
    animation-timing-function: cubic-bezier(0.5, 0, 1, 0.5);
  }
  50% {
    animation-timing-function: cubic-bezier(0, 0.5, 0.5, 1);
  }
  0% {
    -webkit-transform: translate(0, 0);
    transform: translate(0, 0);
  }
  49.9% {
    -webkit-transform: translate(100px, 0);
    transform: translate(100px, 0);
  }
  50% {
    -webkit-transform: translate(-100px, 0);
    transform: translate(-100px, 0);
  }
  100% {
    -webkit-transform: translate(0, 0);
    transform: translate(0, 0);
  }
}
@-webkit-keyframes ld-slide-px-ltr {
  0%, 100% {
    animation-timing-function: cubic-bezier(0.5, 0, 1, 0.5);
  }
  50% {
    animation-timing-function: cubic-bezier(0, 0.5, 0.5, 1);
  }
  0% {
    -webkit-transform: translate(0, 0);
    transform: translate(0, 0);
  }
  49.9% {
    -webkit-transform: translate(100px, 0);
    transform: translate(100px, 0);
  }
  50% {
    -webkit-transform: translate(-100px, 0);
    transform: translate(-100px, 0);
  }
  100% {
    -webkit-transform: translate(0, 0);
    transform: translate(0, 0);
  }
}
.ld.ld-slide-px-ltr {
  -webkit-animation: ld-slide-px-ltr 1s infinite;
  animation: ld-slide-px-ltr 1s infinite;
}
</style></svg></svg>